HIERARCHY
ROOT Hips
{
	OFFSET 0.00 0.00 0.00
	CHANNELS 6 Xposition Yposition Zposition Xrotation Yrotation Zrotation
	JOINT RightUpLeg
	{
		OFFSET -4.47808 0.00000 0.00000
		CHANNELS 3 Xrotation Yrotation Zrotation
		JOINT RightLeg
		{
			OFFSET 0.00000 -16.40577 0.00000
			CHANNELS 3 Xrotation Yrotation Zrotation
			JOINT RightFoot
			{
				OFFSET 0.00000 -14.64414 0.00000
				CHANNELS 3 Xrotation Yrotation Zrotation
				JOINT RightToeBase
				{
					OFFSET 0.00000 -1.50274 5.60831
					CHANNELS 3 Xrotation Yrotation Zrotation
					End Site
					{
						OFFSET 0.00000 0.00000 2.95275
					}
				}
			}
		}
	}
	JOINT LeftUpLeg
	{
		OFFSET 4.47808 0.00000 0.00000
		CHANNELS 3 Xrotation Yrotation Zrotation
		JOINT LeftLeg
		{
			OFFSET 0.00000 -16.40577 0.00000
			CHANNELS 3 Xrotation Yrotation Zrotation
			JOINT LeftFoot
			{
				OFFSET 0.00000 -14.64414 0.00000
				CHANNELS 3 Xrotation Yrotation Zrotation
				JOINT LeftToeBase
				{
					OFFSET 0.00000 -1.50274 5.60831
					CHANNELS 3 Xrotation Yrotation Zrotation
					End Site
					{
						OFFSET 0.00000 0.00000 2.95275
					}
				}
			}
		}
	}
	JOINT Spine
	{
		OFFSET 0.00000 6.06821 0.00000
		CHANNELS 3 Xrotation Yrotation Zrotation
		JOINT RightShoulder
		{
			OFFSET 0.00000 10.01392 0.00000
			CHANNELS 3 Xrotation Yrotation Zrotation
			JOINT RightArm
			{
				OFFSET -7.19022 0.00000 0.00000
				CHANNELS 3 Xrotation Yrotation Zrotation
				JOINT RightForeArm
				{
					OFFSET -10.17747 0.00000 0.00000
					CHANNELS 3 Yrotation Zrotation Xrotation
					JOINT RightHand
					{
						OFFSET -8.39211 0.00000 0.00000
						CHANNELS 3 Xrotation Yrotation Zrotation
						End Site
						{
							OFFSET -3.93700 0.00000 0.00000
						}
						JOINT RightHandThumb1
						{
							OFFSET 0.00000 0.00000 0.00000
							CHANNELS 3 Xrotation Zrotation Yrotation
							End Site
							{
								OFFSET 0.00000 0.00000 3.93700
							}
						}
					}
				}
			}
		}
		JOINT LeftShoulder
		{
			OFFSET 0.00000 10.01392 0.00000
			CHANNELS 3 Xrotation Yrotation Zrotation
			JOINT LeftArm
			{
				OFFSET 7.19022 0.00000 0.00000
				CHANNELS 3 Xrotation Yrotation Zrotation
				JOINT LeftForeArm
				{
					OFFSET 10.17747 0.00000 0.00000
					CHANNELS 3 Yrotation Zrotation Xrotation
					JOINT LeftHand
					{
						OFFSET 8.39211 0.00000 0.00000
						CHANNELS 3 Xrotation Yrotation Zrotation
						End Site
						{
							OFFSET 3.93700 0.00000 0.00000
						}
						JOINT LeftHandThumb1
						{
							OFFSET 0.00000 0.00000 0.00000
							CHANNELS 3 Xrotation Zrotation Yrotation
							End Site
							{
								OFFSET 0.00000 0.00000 3.93700
							}
						}
					}
				}
			}
		}
		JOINT Head
		{
			OFFSET 0.00000 15.77748 0.00000
			CHANNELS 3 Xrotation Yrotation Zrotation
			End Site
			{
				OFFSET 0.00000 4.52755 0.00000
			}
		}
	}
}
MOTION
Frames: 11
Frame Time: 0.008333
 1.6505 33.4458 -3.1250 7.9272 -20.5986 -3.9123 -61.6442 -20.0929 -14.0531 132.8666 -0.0000 0.0000 7.2144 -6.5040 -10.7181 -5.0684 0.0000 0.0000 -7.3924 14.4234 -2.7777 10.2766 -0.0000 0.0000 -16.7093 12.4888 1.6068 9.6110 -0.0000 -0.0000 -9.3701 -1.9375 2.2188 12.0690 -25.4478 -21.0971 -30.6362 -7.9245 43.3823 29.4926 0.0000 11.9705 0.0156 11.4740 -0.0782 32.8623 0.0000 -24.3270 -4.9548 22.1281 24.8288 -31.0250 24.3150 -48.8760 -88.8248 -0.0000 17.4922 -4.7278 10.4754 24.4598 33.1476 -0.0000 26.2537 23.2665 -10.0855 0.6320
 1.6544 33.4434 -3.1208 7.9314 -20.5873 -3.8944 -61.6921 -20.0920 -14.0988 132.7625 0.0000 -0.0000 7.2892 -6.5191 -10.9218 -5.3897 -0.0000 0.0000 -7.3870 14.3965 -2.8036 10.2805 -0.0000 0.0000 -16.7322 12.5043 1.6020 9.6464 0.0000 -0.0000 -9.3840 -1.9587 2.2022 12.0407 -25.4432 -21.1279 -30.6416 -7.9375 43.3547 29.4865 0.0000 11.9525 0.0129 11.5065 -0.0648 32.8623 0.0000 -24.3270 -4.9724 22.1009 24.8269 -31.0402 24.4078 -48.9041 -88.8499 -0.0000 17.6034 -4.7533 10.5061 24.5141 33.1476 -0.0000 26.2537 23.2744 -10.1277 0.5913
 1.6589 33.4414 -3.1188 7.9530 -20.5569 -3.8630 -61.7666 -20.0882 -14.1650 132.6481 -0.0000 0.0000 7.2131 -6.5645 -10.8669 -4.9890 0.0000 0.0000 -7.4068 14.3732 -2.8374 10.2989 -0.0000 0.0000 -16.7383 12.5211 1.5693 9.6760 -0.0000 0.0000 -9.4198 -1.9958 2.1696 12.0427 -25.4254 -21.1518 -30.6366 -7.9783 43.3274 29.4928 0.0000 11.9507 0.0244 11.4612 -0.1228 32.8623 0.0000 -24.3270 -4.9752 22.0666 24.8394 -31.0981 24.5301 -48.9393 -88.8353 -0.0000 17.7209 -4.7436 10.4922 24.4980 33.1476 -0.0000 26.2537 23.2877 -10.1486 0.5375
 1.6617 33.4395 -3.1152 7.9481 -20.5316 -3.8513 -61.8053 -20.0936 -14.2105 132.5452 -0.0000 -0.0000 7.0883 -6.5256 -10.9457 -5.2073 -0.0000 -0.0000 -7.3893 14.3931 -2.8491 10.2983 -0.0000 0.0000 -16.7514 12.4873 1.4543 9.7041 -0.0000 0.0000 -9.4256 -2.0191 2.1553 12.0499 -25.4369 -21.1690 -30.6512 -8.0007 43.2927 29.4772 0.0000 11.9369 0.0355 11.4427 -0.1791 32.8623 0.0000 -24.3270 -4.9976 22.0065 24.8599 -31.1422 24.6625 -48.9673 -88.7849 -0.0000 17.8805 -4.7505 10.5066 24.5004 33.1476 -0.0000 26.2537 23.2958 -10.1886 0.4918
 1.6636 33.4388 -3.1135 7.9484 -20.4957 -3.8362 -61.8494 -20.1089 -14.2606 132.4332 0.0000 0.0000 6.9134 -6.4693 -10.8990 -5.0838 0.0000 -0.0000 -7.4006 14.3397 -2.8738 10.3291 -0.0000 -0.0000 -16.7619 12.5352 1.4418 9.7482 0.0000 0.0000 -9.4302 -2.0446 2.1385 12.0736 -25.4628 -21.1721 -30.6513 -7.9876 43.2476 29.4426 0.0000 11.8756 0.0228 11.5290 -0.1138 32.8623 0.0000 -24.3270 -5.0417 21.9359 24.8798 -31.1858 24.7605 -48.9798 -88.6648 -0.0000 18.0181 -4.8472 10.6046 24.7404 33.1476 -0.0000 26.2537 23.2949 -10.2536 0.4461
 1.6636 33.4385 -3.1121 7.9396 -20.4585 -3.8380 -61.8816 -20.1571 -14.2973 132.3183 -0.0000 -0.0000 6.7236 -6.4834 -10.9400 -4.8706 -0.0000 -0.0000 -7.4160 14.3093 -2.8749 10.3820 0.0000 0.0000 -16.7861 12.5674 1.3914 9.7595 -0.0000 -0.0000 -9.4187 -2.0739 2.1348 12.0515 -25.4793 -21.1894 -30.6442 -8.0089 43.2143 29.4085 0.0000 11.8865 0.0537 11.5372 -0.2684 32.8623 0.0000 -24.3270 -5.0958 21.8768 24.8978 -31.2359 24.8314 -48.9759 -88.5246 -0.0000 18.1205 -4.8748 10.6213 24.8312 33.1476 -0.0000 26.2537 23.2704 -10.3048 0.4072
 1.6630 33.4384 -3.1107 7.9222 -20.4205 -3.8427 -61.9051 -20.2098 -14.3264 132.2133 0.0000 -0.0000 6.5493 -6.5710 -11.0337 -5.0664 0.0000 -0.0000 -7.4308 14.3112 -2.8672 10.4530 -0.0000 0.0000 -16.8160 12.5719 1.2889 9.8672 -0.0000 -0.0000 -9.4007 -2.1230 2.1282 12.0770 -25.4931 -21.1824 -30.6767 -8.0131 43.1874 29.3507 0.0000 11.8001 0.0915 11.6103 -0.4548 32.8623 0.0000 -24.3270 -5.2023 21.7888 24.9436 -31.2060 24.9140 -48.9526 -88.3765 -0.0000 18.1834 -4.8712 10.5602 24.9396 33.1476 -0.0000 26.2537 23.2577 -10.3457 0.3705
 1.6614 33.4384 -3.1099 7.8994 -20.3799 -3.8585 -61.9255 -20.2828 -14.3500 132.1003 0.0000 0.0000 6.4252 -6.7349 -10.9988 -5.0409 0.0000 0.0000 -7.4545 14.3106 -2.8482 10.5457 0.0000 0.0000 -16.8592 12.5647 1.2458 9.9423 0.0000 0.0000 -9.3722 -2.1627 2.1352 12.0589 -25.4997 -21.1934 -30.7311 -8.1378 43.1351 29.3998 0.0000 12.0138 0.0174 11.5523 -0.0868 32.8623 0.0000 -24.3270 -5.2617 21.7264 24.9688 -31.2181 24.9533 -48.9336 -88.2031 -0.0000 18.2741 -4.8978 10.5492 25.0823 33.1476 -0.0000 26.2537 23.2250 -10.3877 0.3405
 1.6596 33.4384 -3.1102 7.8721 -20.3383 -3.8723 -61.9531 -20.3545 -14.3761 131.9824 0.0000 -0.0000 6.3180 -6.9258 -11.0336 -5.0488 -0.0000 -0.0000 -7.4917 14.3391 -2.8249 10.6774 0.0000 0.0000 -16.9053 12.5253 1.2046 9.9452 -0.0000 -0.0000 -9.3354 -2.1995 2.1302 12.0395 -25.5124 -21.1931 -30.7244 -8.1342 43.0902 29.3165 0.0000 12.0126 0.0550 11.5716 -0.2742 32.8623 0.0000 -24.3270 -5.2942 21.6723 25.0046 -31.2513 25.0105 -48.9211 -88.0293 -0.0000 18.3316 -4.9122 10.5404 25.1654 33.1476 -0.0000 26.2537 23.1883 -10.4276 0.3324
 1.6566 33.4389 -3.1108 7.8364 -20.2988 -3.8941 -61.9703 -20.4253 -14.3896 131.8617 0.0000 0.0000 6.3578 -7.0882 -11.1668 -5.3862 0.0000 0.0000 -7.5224 14.3411 -2.7971 10.8026 0.0000 0.0000 -16.9450 12.5304 1.1357 9.9278 0.0000 -0.0000 -9.2866 -2.2481 2.1242 12.0276 -25.5198 -21.1762 -30.7381 -8.1604 43.0388 29.2696 0.0000 12.0239 0.0569 11.5994 -0.2830 32.8623 0.0000 -24.3270 -5.3706 21.6051 25.0632 -31.2164 25.0565 -48.8974 -87.8680 -0.0000 18.3710 -4.9151 10.5032 25.2556 33.1476 -0.0000 26.2537 23.1495 -10.4456 0.3358
 1.6525 33.4385 -3.1127 7.8055 -20.2767 -3.9130 -61.9939 -20.4693 -14.3755 131.7495 -0.0000 0.0000 6.3653 -7.2774 -11.0299 -5.3807 -0.0000 0.0000 -7.5581 14.3647 -2.7648 10.9290 0.0000 0.0000 -17.0012 12.5009 1.1264 9.9596 0.0000 0.0000 -9.2415 -2.2939 2.1205 12.0106 -25.5235 -21.1849 -30.7200 -8.1892 43.0218 29.2489 0.0000 11.9361 0.0716 11.6597 -0.3544 32.8623 0.0000 -24.3270 -5.3822 21.5969 25.0867 -31.2629 25.0573 -48.8547 -87.6873 -0.0000 18.4621 -4.8721 10.4543 25.1626 33.1476 -0.0000 26.2537 23.1025 -10.4600 0.3358
